<svg xmlns="http://www.w3.org/2000/svg" width="1080" height="1920"><rect width="1080" height="1920" fill="#F6F8FB"/><text x="70" y="120" font-family="Arial,sans-serif" font-size="50" font-weight="700" fill="#4F6788">UnaMano</text><text x="540" y="330" text-anchor="middle" font-family="Arial,sans-serif" font-size="62" font-weight="700" fill="#4F6788">Scegli quello che sai fare</text><g font-family="Arial,sans-serif" font-weight="700"><rect x="130" y="480" width="820" height="150" rx="34" fill="white" stroke="#D5DFE8" stroke-width="4"/><circle cx="215" cy="555" r="45" fill="#E8EEF5"/><text x="215" y="570" text-anchor="middle" font-size="38" fill="#4F6788">B</text><text x="305" y="575" font-size="42" fill="#203040">BABYSITTER</text><rect x="130" y="675" width="820" height="150" rx="34" fill="white" stroke="#D5DFE8" stroke-width="4"/><circle cx="215" cy="750" r="45" fill="#E8EEF5"/><text x="215" y="765" text-anchor="middle" font-size="38" fill="#4F6788">G</text><text x="305" y="770" font-size="42" fill="#203040">GIARDINAGGIO</text><rect x="130" y="870" width="820" height="150" rx="34" fill="white" stroke="#D5DFE8" stroke-width="4"/><circle cx="215" cy="945" r="45" fill="#E8EEF5"/><text x="215" y="960" text-anchor="middle" font-size="38" fill="#4F6788">S</text><text x="305" y="965" font-size="42" fill="#203040">SPESA</text><rect x="130" y="1065" width="820" height="150" rx="34" fill="white" stroke="#D5DFE8" stroke-width="4"/><circle cx="215" cy="1140" r="45" fill="#E8EEF5"/><text x="215" y="1155" text-anchor="middle" font-size="38" fill="#4F6788">L</text><text x="305" y="1160" font-size="42" fill="#203040">PICCOLI LAVORI</text><rect x="130" y="1260" width="820" height="150" rx="34" fill="white" stroke="#D5DFE8" stroke-width="4"/><circle cx="215" cy="1335" r="45" fill="#E8EEF5"/><text x="215" y="1350" text-anchor="middle" font-size="38" fill="#4F6788">A</text><text x="305" y="1355" font-size="38" fill="#203040">ATTIVITA' STAGIONALI</text></g><text x="540" y="1590" text-anchor="middle" font-family="Arial,sans-serif" font-size="42" font-weight="700" fill="#667788">Quando vuoi. Nella tua citta'.</text><text x="540" y="1810" text-anchor="middle" font-family="Arial,sans-serif" font-size="26" fill="#667788">utty1985-beep.github.io/Unamano/</text></svg>